<svg width="373" height="99" viewBox="0 0 373 99" fill="none" xmlns="http://www.w3.org/2000/svg">
<path d="M35.64 23.2C35.64 29.2 30.84 34 20.76 34H2.28C1.32 34 0.6 33.28 0.6 32.32V2.08C0.6 1.12 1.32 0.399998 2.28 0.399998H31.08C32.04 0.399998 32.76 1.12 32.76 2.08V6.88C32.76 7.84 32.04 8.56 31.08 8.56H11.16V12.4H20.76C30.84 12.4 35.64 17.2 35.64 23.2ZM20.76 20.08H11.16V26.32H20.76C23.16 26.32 24.6 24.88 24.6 23.2C24.6 21.52 23.16 20.08 20.76 20.08ZM60.0221 14.8L64.8221 2.08C65.1581 1.12 66.0221 0.399998 67.2221 0.399998H74.1821C75.3821 0.399998 75.9581 1.12 75.6221 2.08L67.7021 23.44C65.3021 29.92 61.2221 34 53.3021 34H47.3021C46.3421 34 45.6221 33.28 45.6221 32.32V27.04C45.6221 26.08 46.3421 25.36 47.3021 25.36H49.4621C50.4221 25.36 51.8621 25.84 52.8221 25.84H53.3021C55.2221 25.84 56.5181 24.64 56.9021 23.44L57.1421 22.72H55.9421C48.0221 22.72 44.1821 18.88 41.3021 11.92L37.2221 2.08C36.8381 1.12 37.4621 0.399998 38.6621 0.399998H45.8621C47.0621 0.399998 47.8781 1.12 48.2621 2.08L52.3421 11.92C53.0621 13.6 54.2621 14.8 56.1821 14.8H60.0221ZM115.579 25.84H118.699C119.659 25.84 120.379 26.56 120.379 27.52V32.32C120.379 33.28 119.659 34 118.699 34H77.8988C76.9388 34 76.2188 33.28 76.2188 32.32V27.52C76.2188 26.56 76.9388 25.84 77.8988 25.84H80.5388L83.6588 12.88C85.5308 5.2 90.3788 0.399998 99.9788 0.399998H113.899C114.859 0.399998 115.579 1.12 115.579 2.08V25.84ZM105.019 25.84V8.56H99.9788C96.8588 8.56 95.0828 10.24 94.4588 12.88L91.3388 25.84H105.019ZM144.022 14.8L148.822 2.08C149.158 1.12 150.022 0.399998 151.222 0.399998H158.182C159.382 0.399998 159.958 1.12 159.622 2.08L151.702 23.44C149.302 29.92 145.222 34 137.302 34H131.302C130.342 34 129.622 33.28 129.622 32.32V27.04C129.622 26.08 130.342 25.36 131.302 25.36H133.462C134.422 25.36 135.862 25.84 136.822 25.84H137.302C139.222 25.84 140.518 24.64 140.902 23.44L141.142 22.72H139.942C132.022 22.72 128.182 18.88 125.302 11.92L121.222 2.08C120.838 1.12 121.462 0.399998 122.662 0.399998H129.862C131.062 0.399998 131.878 1.12 132.262 2.08L136.342 11.92C137.062 13.6 138.262 14.8 140.182 14.8H144.022ZM214.699 2.08V25.84H217.819C218.779 25.84 219.499 26.56 219.499 27.52V32.32C219.499 33.28 218.779 34 217.819 34H165.499C164.539 34 163.819 33.28 163.819 32.32V2.08C163.819 1.12 164.539 0.399998 165.499 0.399998H172.699C173.659 0.399998 174.379 1.12 174.379 2.08V25.84H183.979V2.08C183.979 1.12 184.699 0.399998 185.659 0.399998H192.859C193.819 0.399998 194.539 1.12 194.539 2.08V25.84H204.139V2.08C204.139 1.12 204.859 0.399998 205.819 0.399998H213.019C213.979 0.399998 214.699 1.12 214.699 2.08ZM256.459 2.08V6.88C256.459 7.84 255.739 8.56 254.779 8.56H234.379V12.88H249.499C250.459 12.88 251.179 13.6 251.179 14.56V19.36C251.179 20.32 250.459 21.04 249.499 21.04H234.379V25.84H254.779C255.739 25.84 256.459 26.56 256.459 27.52V32.32C256.459 33.28 255.739 34 254.779 34H225.499C224.539 34 223.819 33.28 223.819 32.32V2.08C223.819 1.12 224.539 0.399998 225.499 0.399998H254.779C255.739 0.399998 256.459 1.12 256.459 2.08ZM294.381 2.08V6.88C294.381 7.84 293.661 8.56 292.701 8.56H272.301V12.88H287.421C288.381 12.88 289.101 13.6 289.101 14.56V19.36C289.101 20.32 288.381 21.04 287.421 21.04H272.301V25.84H292.701C293.661 25.84 294.381 26.56 294.381 27.52V32.32C294.381 33.28 293.661 34 292.701 34H263.421C262.461 34 261.741 33.28 261.741 32.32V2.08C261.741 1.12 262.461 0.399998 263.421 0.399998H292.701C293.661 0.399998 294.381 1.12 294.381 2.08ZM335.642 2.08V6.88C335.642 7.84 334.922 8.56 333.962 8.56H329.402V25.84H333.962C334.922 25.84 335.642 26.56 335.642 27.52V32.32C335.642 33.28 334.922 34 333.962 34H314.282C313.322 34 312.602 33.28 312.602 32.32V27.52C312.602 26.56 313.322 25.84 314.282 25.84H318.842V8.56H314.282C313.322 8.56 312.602 7.84 312.602 6.88V2.08C312.602 1.12 313.322 0.399998 314.282 0.399998H333.962C334.922 0.399998 335.642 1.12 335.642 2.08ZM372.113 2.08V6.88C372.113 7.84 371.393 8.56 370.433 8.56H360.353V32.32C360.353 33.28 359.633 34 358.673 34H351.473C350.513 34 349.793 33.28 349.793 32.32V8.56H339.713C338.753 8.56 338.033 7.84 338.033 6.88V2.08C338.033 1.12 338.753 0.399998 339.713 0.399998H370.433C371.393 0.399998 372.113 1.12 372.113 2.08ZM25.08 80.24V80.72C25.08 80.72 28.44 81.68 31.56 87.44L36.36 96.32C36.744 97.04 36.36 98 35.16 98H27.72C25.8 98 25.128 97.28 24.6 96.32L19.8 87.44C19.032 86 18.12 85.04 15.48 85.04H11.16V96.32C11.16 97.28 10.44 98 9.48 98H2.28C1.32 98 0.6 97.28 0.6 96.32V66.08C0.6 65.12 1.32 64.4 2.28 64.4H9.48C10.44 64.4 11.16 65.12 11.16 66.08V76.88H14.76C17.4 76.88 18.312 75.92 19.08 74.48L23.64 66.08C24.168 65.12 24.84 64.4 26.76 64.4H34.2C35.4 64.4 35.784 65.36 35.4 66.08L30.84 74.48C28.248 79.28 25.08 80.24 25.08 80.24ZM59.0588 91.04C64.3387 91.04 67.6988 87.68 67.6988 81.2C67.6988 74.72 64.3387 71.36 59.0588 71.36C53.7788 71.36 50.4188 74.72 50.4188 81.2C50.4188 87.68 53.7788 91.04 59.0588 91.04ZM59.0588 63.44C71.7788 63.44 78.7388 70.4 78.7388 81.2C78.7388 92 71.7788 98.96 59.0588 98.96C46.3388 98.96 39.3788 92 39.3788 81.2C39.3788 70.4 46.3388 63.44 59.0588 63.44ZM110.474 98H104.666C103.226 98 102.314 97.04 102.026 96.32L95.5463 80.48H95.0663V96.32C95.0663 97.28 94.3463 98 93.3863 98H86.1863C85.2263 98 84.5063 97.28 84.5063 96.32V66.08C84.5063 65.12 85.2263 64.4 86.1863 64.4H96.2663C97.7063 64.4 98.6183 65.36 98.9063 66.08L107.306 86.48H107.786L116.186 66.08C116.474 65.36 117.386 64.4 118.826 64.4H128.906C129.866 64.4 130.586 65.12 130.586 66.08V96.32C130.586 97.28 129.866 98 128.906 98H121.706C120.746 98 120.026 97.28 120.026 96.32V80.48H119.546L113.114 96.32C112.826 97.04 111.914 98 110.474 98ZM172.843 66.08V96.32C172.843 97.28 172.123 98 171.163 98H163.963C163.003 98 162.283 97.28 162.283 96.32V72.56H148.363V96.32C148.363 97.28 147.643 98 146.683 98H139.483C138.523 98 137.803 97.28 137.803 96.32V66.08C137.803 65.12 138.523 64.4 139.483 64.4H171.163C172.123 64.4 172.843 65.12 172.843 66.08ZM206.102 96.32L204.422 92H189.302L187.622 96.32C187.238 97.28 186.422 98 185.462 98H177.782C176.822 98 176.149 97.28 176.582 96.32L190.022 66.08C190.454 65.12 191.222 64.4 192.182 64.4H202.022C202.982 64.4 203.75 65.072 204.182 66.032L217.622 96.32C218.054 97.28 217.382 98 216.422 98H208.262C207.302 98 206.486 97.28 206.102 96.32ZM196.742 74.48L192.662 84.08H201.062L197.222 74.48H196.742ZM255.484 66.08V96.32C255.484 97.28 254.764 98 253.804 98H246.604C245.644 98 244.924 97.28 244.924 96.32V85.52H231.004V96.32C231.004 97.28 230.284 98 229.324 98H222.124C221.164 98 220.444 97.28 220.444 96.32V66.08C220.444 65.12 221.164 64.4 222.124 64.4H229.324C230.284 64.4 231.004 65.12 231.004 66.08V77.36H244.924V66.08C244.924 65.12 245.644 64.4 246.604 64.4H253.804C254.764 64.4 255.484 65.12 255.484 66.08ZM287.638 78.8H287.158L275.158 96.32C274.678 97.04 273.718 98 272.518 98H264.358C263.398 98 262.678 97.28 262.678 96.32V66.08C262.678 65.12 263.398 64.4 264.358 64.4H271.558C272.518 64.4 273.238 65.12 273.238 66.08V83.6H273.718L285.718 66.08C286.198 65.36 287.158 64.4 288.358 64.4H296.518C297.478 64.4 298.198 65.12 298.198 66.08V96.32C298.198 97.28 297.478 98 296.518 98H289.318C288.358 98 287.638 97.28 287.638 96.32V78.8ZM322.661 55.52C324.341 55.52 325.541 54.32 325.781 52.88C325.877 52.4 326.261 51.92 326.981 51.92H331.541C332.021 51.92 332.501 52.4 332.501 52.88C332.501 57.92 328.901 61.52 322.661 61.52C316.421 61.52 312.821 57.92 312.821 52.88C312.821 52.4 313.301 51.92 313.781 51.92H318.341C319.061 51.92 319.445 52.4 319.541 52.88C319.781 54.32 320.981 55.52 322.661 55.52ZM330.341 78.8H329.861L317.861 96.32C317.381 97.04 316.421 98 315.221 98H307.061C306.101 98 305.381 97.28 305.381 96.32V66.08C305.381 65.12 306.101 64.4 307.061 64.4H314.261C315.221 64.4 315.941 65.12 315.941 66.08V83.6H316.421L328.421 66.08C328.901 65.36 329.861 64.4 331.061 64.4H339.221C340.181 64.4 340.901 65.12 340.901 66.08V96.32C340.901 97.28 340.181 98 339.221 98H332.021C331.061 98 330.341 97.28 330.341 96.32V78.8Z" fill="black"/>
</svg>
